<svg version="1.2" xmlns="http://www.w3.org/2000/svg" viewBox="0 0 1400 450" width="1400" height="450"><style>.a{fill:#0c0c0c}.b{fill:#222}.c{fill:#2f2f2f}.d{fill:#434343}</style><path class="a" d="m497.2 350.8c68.4 0 118.5-46.2 118.5-109.8 0-63.6-50.1-109.8-118.5-109.8-68.4 0-118.5 46.2-118.5 109.8 0 63.6 50.1 109.8 118.5 109.8zm0-57.3c-26.1 0-47.1-19.8-47.1-52.5 0-32.7 21-52.5 47.1-52.5 26.1 0 47.1 19.8 47.1 52.5 0 32.7-21 52.5-47.1 52.5zm142.2 52.5h67.8v-222.6h-67.8zm131.7-177.3c24.9 0 40.8-15 40.8-35.7 0-19.5-15.9-33.3-40.8-33.3-24.9 0-40.8 15-40.8 34.5 0 19.5 15.9 34.5 40.8 34.5zm-33.9 177.3h67.8v-164.1h-67.8zm279 0l-61.8-84.3 60.3-79.8h-71.1l-24.6 34.8-23.4-34.8h-76.5l60.3 82.8-62.1 81.3h73.5l25.2-35.1 22.5 35.1zm46.2-177.3c24.9 0 40.8-15 40.8-35.7 0-19.5-15.9-33.3-40.8-33.3-24.9 0-40.8 15-40.8 34.5 0 19.5 15.9 34.5 40.8 34.5zm-33.9 177.3h67.8v-164.1h-67.8zm211.5-222.6v69.6c-9.9-9.6-23.7-14.1-41.7-14.1-42.9 0-79.2 32.1-79.2 84.9 0 52.8 36.3 85.2 79.2 85.2 20.4 0 35.1-5.4 45-16.5v13.5h64.5v-222.6zm-25.5 172.8c-15 0-26.7-11.1-26.7-32.4 0-21.3 11.7-32.1 26.7-32.1 15 0 26.7 10.8 26.7 32.1 0 21.3-11.7 32.4-26.7 32.4z"/><path class="a" d="m293.8 291.2l-217 2.4 106.4-189.2z"/><path class="b" d="m307.8 314.2l-217 2.4 106.4-189.2z"/><path class="c" d="m319.8 334.2l-217 2.4 106.4-189.2z"/><path class="d" d="m333.8 357.2l-217 2.4 106.4-189.2z"/></svg>