<svg xmlns="http://www.w3.org/2000/svg" viewBox="0 0 1200 400" width="1200" height="400" role="img" aria-label="OLIXID, ingénierie IA, Paris">
<defs>

  <linearGradient id="xl" x1="0%" y1="0%" x2="100%" y2="0%">
    <stop offset="0%" stop-color="#F27A21"/>
    <stop offset="100%" stop-color="#FFAD73"/>
  </linearGradient>
  <linearGradient id="xd" x1="0%" y1="0%" x2="100%" y2="0%">
    <stop offset="0%" stop-color="#732700"/>
    <stop offset="100%" stop-color="#C14E0E"/>
  </linearGradient>
  <g id="xb">
    <polygon points="0,-45 135,-45 180,0 135,0 0,0" fill="url(#xl)"/>
    <polygon points="45,0 135,0 180,0 135,45 45,45" fill="url(#xd)"/>
  </g>

  <radialGradient id="halo" cx="50%" cy="50%" r="50%">
    <stop offset="0%" stop-color="#F27A21" stop-opacity="0.35"/>
    <stop offset="60%" stop-color="#F27A21" stop-opacity="0.06"/>
    <stop offset="100%" stop-color="#F27A21" stop-opacity="0"/>
  </radialGradient>
  <linearGradient id="rule" x1="0" x2="1">
    <stop offset="0" stop-color="#F27A21" stop-opacity="0"/>
    <stop offset=".5" stop-color="#F27A21"/>
    <stop offset="1" stop-color="#F27A21" stop-opacity="0"/>
  </linearGradient>
  <clipPath id="frame"><rect width="1200" height="400" rx="18"/></clipPath>
</defs>
<style>
  .blade { animation: fly 1.1s cubic-bezier(.2,.9,.25,1) both; }
  .core { transform-box: fill-box; transform-origin: center; animation: pop .6s .75s cubic-bezier(.3,1.6,.5,1) both; }
  .letters { animation: rise .9s .15s ease-out both; }
  .halo { transform-box: fill-box; transform-origin: center; animation: breathe 6s 1.4s ease-in-out infinite; }
  .tag { animation: fade 1s 1.2s ease-out both; }
  .rule { stroke-dasharray: 700; animation: draw 1.4s 1s ease-out both; }
  .chip { animation: fade .8s 1.8s ease-out both; }
  .caret { animation: blink 1s steps(1) infinite; }
  .grid { animation: drift 30s linear infinite; }
  @keyframes fly { from { transform: translate(260px,0); opacity: 0 } to { transform: none; opacity: 1 } }
  @keyframes pop { from { transform: scale(0) } to { transform: scale(1) } }
  @keyframes rise { from { transform: translateY(14px); opacity: 0 } to { transform: none; opacity: 1 } }
  @keyframes fade { from { opacity: 0 } to { opacity: 1 } }
  @keyframes draw { from { stroke-dashoffset: 700 } to { stroke-dashoffset: 0 } }
  @keyframes breathe { 0%,100% { opacity: .75; transform: scale(1) } 50% { opacity: 1; transform: scale(1.12) } }
  @keyframes blink { 50% { opacity: 0 } }
  @keyframes drift { from { transform: translate(0,0) } to { transform: translate(30px,30px) } }
  @media (prefers-reduced-motion: reduce) { * { animation: none !important; } }
</style>
<g clip-path="url(#frame)">
  <rect width="1200" height="400" fill="#141A32"/>
  <g fill="#ECE7DC" opacity=".07" transform="translate(-30,-30)"><g class="grid"><circle cx="30" cy="30" r="1.1"/>
<circle cx="30" cy="60" r="1.1"/>
<circle cx="30" cy="90" r="1.1"/>
<circle cx="30" cy="120" r="1.1"/>
<circle cx="30" cy="150" r="1.1"/>
<circle cx="30" cy="180" r="1.1"/>
<circle cx="30" cy="210" r="1.1"/>
<circle cx="30" cy="240" r="1.1"/>
<circle cx="30" cy="270" r="1.1"/>
<circle cx="30" cy="300" r="1.1"/>
<circle cx="30" cy="330" r="1.1"/>
<circle cx="30" cy="360" r="1.1"/>
<circle cx="30" cy="390" r="1.1"/>
<circle cx="60" cy="30" r="1.1"/>
<circle cx="60" cy="60" r="1.1"/>
<circle cx="60" cy="90" r="1.1"/>
<circle cx="60" cy="120" r="1.1"/>
<circle cx="60" cy="150" r="1.1"/>
<circle cx="60" cy="180" r="1.1"/>
<circle cx="60" cy="210" r="1.1"/>
<circle cx="60" cy="240" r="1.1"/>
<circle cx="60" cy="270" r="1.1"/>
<circle cx="60" cy="300" r="1.1"/>
<circle cx="60" cy="330" r="1.1"/>
<circle cx="60" cy="360" r="1.1"/>
<circle cx="60" cy="390" r="1.1"/>
<circle cx="90" cy="30" r="1.1"/>
<circle cx="90" cy="60" r="1.1"/>
<circle cx="90" cy="90" r="1.1"/>
<circle cx="90" cy="120" r="1.1"/>
<circle cx="90" cy="150" r="1.1"/>
<circle cx="90" cy="180" r="1.1"/>
<circle cx="90" cy="210" r="1.1"/>
<circle cx="90" cy="240" r="1.1"/>
<circle cx="90" cy="270" r="1.1"/>
<circle cx="90" cy="300" r="1.1"/>
<circle cx="90" cy="330" r="1.1"/>
<circle cx="90" cy="360" r="1.1"/>
<circle cx="90" cy="390" r="1.1"/>
<circle cx="120" cy="30" r="1.1"/>
<circle cx="120" cy="60" r="1.1"/>
<circle cx="120" cy="90" r="1.1"/>
<circle cx="120" cy="120" r="1.1"/>
<circle cx="120" cy="150" r="1.1"/>
<circle cx="120" cy="180" r="1.1"/>
<circle cx="120" cy="210" r="1.1"/>
<circle cx="120" cy="240" r="1.1"/>
<circle cx="120" cy="270" r="1.1"/>
<circle cx="120" cy="300" r="1.1"/>
<circle cx="120" cy="330" r="1.1"/>
<circle cx="120" cy="360" r="1.1"/>
<circle cx="120" cy="390" r="1.1"/>
<circle cx="150" cy="30" r="1.1"/>
<circle cx="150" cy="60" r="1.1"/>
<circle cx="150" cy="90" r="1.1"/>
<circle cx="150" cy="120" r="1.1"/>
<circle cx="150" cy="150" r="1.1"/>
<circle cx="150" cy="180" r="1.1"/>
<circle cx="150" cy="210" r="1.1"/>
<circle cx="150" cy="240" r="1.1"/>
<circle cx="150" cy="270" r="1.1"/>
<circle cx="150" cy="300" r="1.1"/>
<circle cx="150" cy="330" r="1.1"/>
<circle cx="150" cy="360" r="1.1"/>
<circle cx="150" cy="390" r="1.1"/>
<circle cx="180" cy="30" r="1.1"/>
<circle cx="180" cy="60" r="1.1"/>
<circle cx="180" cy="90" r="1.1"/>
<circle cx="180" cy="120" r="1.1"/>
<circle cx="180" cy="150" r="1.1"/>
<circle cx="180" cy="180" r="1.1"/>
<circle cx="180" cy="210" r="1.1"/>
<circle cx="180" cy="240" r="1.1"/>
<circle cx="180" cy="270" r="1.1"/>
<circle cx="180" cy="300" r="1.1"/>
<circle cx="180" cy="330" r="1.1"/>
<circle cx="180" cy="360" r="1.1"/>
<circle cx="180" cy="390" r="1.1"/>
<circle cx="210" cy="30" r="1.1"/>
<circle cx="210" cy="60" r="1.1"/>
<circle cx="210" cy="90" r="1.1"/>
<circle cx="210" cy="120" r="1.1"/>
<circle cx="210" cy="150" r="1.1"/>
<circle cx="210" cy="180" r="1.1"/>
<circle cx="210" cy="210" r="1.1"/>
<circle cx="210" cy="240" r="1.1"/>
<circle cx="210" cy="270" r="1.1"/>
<circle cx="210" cy="300" r="1.1"/>
<circle cx="210" cy="330" r="1.1"/>
<circle cx="210" cy="360" r="1.1"/>
<circle cx="210" cy="390" r="1.1"/>
<circle cx="240" cy="30" r="1.1"/>
<circle cx="240" cy="60" r="1.1"/>
<circle cx="240" cy="90" r="1.1"/>
<circle cx="240" cy="120" r="1.1"/>
<circle cx="240" cy="150" r="1.1"/>
<circle cx="240" cy="180" r="1.1"/>
<circle cx="240" cy="210" r="1.1"/>
<circle cx="240" cy="240" r="1.1"/>
<circle cx="240" cy="270" r="1.1"/>
<circle cx="240" cy="300" r="1.1"/>
<circle cx="240" cy="330" r="1.1"/>
<circle cx="240" cy="360" r="1.1"/>
<circle cx="240" cy="390" r="1.1"/>
<circle cx="270" cy="30" r="1.1"/>
<circle cx="270" cy="60" r="1.1"/>
<circle cx="270" cy="90" r="1.1"/>
<circle cx="270" cy="120" r="1.1"/>
<circle cx="270" cy="150" r="1.1"/>
<circle cx="270" cy="180" r="1.1"/>
<circle cx="270" cy="210" r="1.1"/>
<circle cx="270" cy="240" r="1.1"/>
<circle cx="270" cy="270" r="1.1"/>
<circle cx="270" cy="300" r="1.1"/>
<circle cx="270" cy="330" r="1.1"/>
<circle cx="270" cy="360" r="1.1"/>
<circle cx="270" cy="390" r="1.1"/>
<circle cx="300" cy="30" r="1.1"/>
<circle cx="300" cy="60" r="1.1"/>
<circle cx="300" cy="90" r="1.1"/>
<circle cx="300" cy="120" r="1.1"/>
<circle cx="300" cy="150" r="1.1"/>
<circle cx="300" cy="180" r="1.1"/>
<circle cx="300" cy="210" r="1.1"/>
<circle cx="300" cy="240" r="1.1"/>
<circle cx="300" cy="270" r="1.1"/>
<circle cx="300" cy="300" r="1.1"/>
<circle cx="300" cy="330" r="1.1"/>
<circle cx="300" cy="360" r="1.1"/>
<circle cx="300" cy="390" r="1.1"/>
<circle cx="330" cy="30" r="1.1"/>
<circle cx="330" cy="60" r="1.1"/>
<circle cx="330" cy="90" r="1.1"/>
<circle cx="330" cy="120" r="1.1"/>
<circle cx="330" cy="150" r="1.1"/>
<circle cx="330" cy="180" r="1.1"/>
<circle cx="330" cy="210" r="1.1"/>
<circle cx="330" cy="240" r="1.1"/>
<circle cx="330" cy="270" r="1.1"/>
<circle cx="330" cy="300" r="1.1"/>
<circle cx="330" cy="330" r="1.1"/>
<circle cx="330" cy="360" r="1.1"/>
<circle cx="330" cy="390" r="1.1"/>
<circle cx="360" cy="30" r="1.1"/>
<circle cx="360" cy="60" r="1.1"/>
<circle cx="360" cy="90" r="1.1"/>
<circle cx="360" cy="120" r="1.1"/>
<circle cx="360" cy="150" r="1.1"/>
<circle cx="360" cy="180" r="1.1"/>
<circle cx="360" cy="210" r="1.1"/>
<circle cx="360" cy="240" r="1.1"/>
<circle cx="360" cy="270" r="1.1"/>
<circle cx="360" cy="300" r="1.1"/>
<circle cx="360" cy="330" r="1.1"/>
<circle cx="360" cy="360" r="1.1"/>
<circle cx="360" cy="390" r="1.1"/>
<circle cx="390" cy="30" r="1.1"/>
<circle cx="390" cy="60" r="1.1"/>
<circle cx="390" cy="90" r="1.1"/>
<circle cx="390" cy="120" r="1.1"/>
<circle cx="390" cy="150" r="1.1"/>
<circle cx="390" cy="180" r="1.1"/>
<circle cx="390" cy="210" r="1.1"/>
<circle cx="390" cy="240" r="1.1"/>
<circle cx="390" cy="270" r="1.1"/>
<circle cx="390" cy="300" r="1.1"/>
<circle cx="390" cy="330" r="1.1"/>
<circle cx="390" cy="360" r="1.1"/>
<circle cx="390" cy="390" r="1.1"/>
<circle cx="420" cy="30" r="1.1"/>
<circle cx="420" cy="60" r="1.1"/>
<circle cx="420" cy="90" r="1.1"/>
<circle cx="420" cy="120" r="1.1"/>
<circle cx="420" cy="150" r="1.1"/>
<circle cx="420" cy="180" r="1.1"/>
<circle cx="420" cy="210" r="1.1"/>
<circle cx="420" cy="240" r="1.1"/>
<circle cx="420" cy="270" r="1.1"/>
<circle cx="420" cy="300" r="1.1"/>
<circle cx="420" cy="330" r="1.1"/>
<circle cx="420" cy="360" r="1.1"/>
<circle cx="420" cy="390" r="1.1"/>
<circle cx="450" cy="30" r="1.1"/>
<circle cx="450" cy="60" r="1.1"/>
<circle cx="450" cy="90" r="1.1"/>
<circle cx="450" cy="120" r="1.1"/>
<circle cx="450" cy="150" r="1.1"/>
<circle cx="450" cy="180" r="1.1"/>
<circle cx="450" cy="210" r="1.1"/>
<circle cx="450" cy="240" r="1.1"/>
<circle cx="450" cy="270" r="1.1"/>
<circle cx="450" cy="300" r="1.1"/>
<circle cx="450" cy="330" r="1.1"/>
<circle cx="450" cy="360" r="1.1"/>
<circle cx="450" cy="390" r="1.1"/>
<circle cx="480" cy="30" r="1.1"/>
<circle cx="480" cy="60" r="1.1"/>
<circle cx="480" cy="90" r="1.1"/>
<circle cx="480" cy="120" r="1.1"/>
<circle cx="480" cy="150" r="1.1"/>
<circle cx="480" cy="180" r="1.1"/>
<circle cx="480" cy="210" r="1.1"/>
<circle cx="480" cy="240" r="1.1"/>
<circle cx="480" cy="270" r="1.1"/>
<circle cx="480" cy="300" r="1.1"/>
<circle cx="480" cy="330" r="1.1"/>
<circle cx="480" cy="360" r="1.1"/>
<circle cx="480" cy="390" r="1.1"/>
<circle cx="510" cy="30" r="1.1"/>
<circle cx="510" cy="60" r="1.1"/>
<circle cx="510" cy="90" r="1.1"/>
<circle cx="510" cy="120" r="1.1"/>
<circle cx="510" cy="150" r="1.1"/>
<circle cx="510" cy="180" r="1.1"/>
<circle cx="510" cy="210" r="1.1"/>
<circle cx="510" cy="240" r="1.1"/>
<circle cx="510" cy="270" r="1.1"/>
<circle cx="510" cy="300" r="1.1"/>
<circle cx="510" cy="330" r="1.1"/>
<circle cx="510" cy="360" r="1.1"/>
<circle cx="510" cy="390" r="1.1"/>
<circle cx="540" cy="30" r="1.1"/>
<circle cx="540" cy="60" r="1.1"/>
<circle cx="540" cy="90" r="1.1"/>
<circle cx="540" cy="120" r="1.1"/>
<circle cx="540" cy="150" r="1.1"/>
<circle cx="540" cy="180" r="1.1"/>
<circle cx="540" cy="210" r="1.1"/>
<circle cx="540" cy="240" r="1.1"/>
<circle cx="540" cy="270" r="1.1"/>
<circle cx="540" cy="300" r="1.1"/>
<circle cx="540" cy="330" r="1.1"/>
<circle cx="540" cy="360" r="1.1"/>
<circle cx="540" cy="390" r="1.1"/>
<circle cx="570" cy="30" r="1.1"/>
<circle cx="570" cy="60" r="1.1"/>
<circle cx="570" cy="90" r="1.1"/>
<circle cx="570" cy="120" r="1.1"/>
<circle cx="570" cy="150" r="1.1"/>
<circle cx="570" cy="180" r="1.1"/>
<circle cx="570" cy="210" r="1.1"/>
<circle cx="570" cy="240" r="1.1"/>
<circle cx="570" cy="270" r="1.1"/>
<circle cx="570" cy="300" r="1.1"/>
<circle cx="570" cy="330" r="1.1"/>
<circle cx="570" cy="360" r="1.1"/>
<circle cx="570" cy="390" r="1.1"/>
<circle cx="600" cy="30" r="1.1"/>
<circle cx="600" cy="60" r="1.1"/>
<circle cx="600" cy="90" r="1.1"/>
<circle cx="600" cy="120" r="1.1"/>
<circle cx="600" cy="150" r="1.1"/>
<circle cx="600" cy="180" r="1.1"/>
<circle cx="600" cy="210" r="1.1"/>
<circle cx="600" cy="240" r="1.1"/>
<circle cx="600" cy="270" r="1.1"/>
<circle cx="600" cy="300" r="1.1"/>
<circle cx="600" cy="330" r="1.1"/>
<circle cx="600" cy="360" r="1.1"/>
<circle cx="600" cy="390" r="1.1"/>
<circle cx="630" cy="30" r="1.1"/>
<circle cx="630" cy="60" r="1.1"/>
<circle cx="630" cy="90" r="1.1"/>
<circle cx="630" cy="120" r="1.1"/>
<circle cx="630" cy="150" r="1.1"/>
<circle cx="630" cy="180" r="1.1"/>
<circle cx="630" cy="210" r="1.1"/>
<circle cx="630" cy="240" r="1.1"/>
<circle cx="630" cy="270" r="1.1"/>
<circle cx="630" cy="300" r="1.1"/>
<circle cx="630" cy="330" r="1.1"/>
<circle cx="630" cy="360" r="1.1"/>
<circle cx="630" cy="390" r="1.1"/>
<circle cx="660" cy="30" r="1.1"/>
<circle cx="660" cy="60" r="1.1"/>
<circle cx="660" cy="90" r="1.1"/>
<circle cx="660" cy="120" r="1.1"/>
<circle cx="660" cy="150" r="1.1"/>
<circle cx="660" cy="180" r="1.1"/>
<circle cx="660" cy="210" r="1.1"/>
<circle cx="660" cy="240" r="1.1"/>
<circle cx="660" cy="270" r="1.1"/>
<circle cx="660" cy="300" r="1.1"/>
<circle cx="660" cy="330" r="1.1"/>
<circle cx="660" cy="360" r="1.1"/>
<circle cx="660" cy="390" r="1.1"/>
<circle cx="690" cy="30" r="1.1"/>
<circle cx="690" cy="60" r="1.1"/>
<circle cx="690" cy="90" r="1.1"/>
<circle cx="690" cy="120" r="1.1"/>
<circle cx="690" cy="150" r="1.1"/>
<circle cx="690" cy="180" r="1.1"/>
<circle cx="690" cy="210" r="1.1"/>
<circle cx="690" cy="240" r="1.1"/>
<circle cx="690" cy="270" r="1.1"/>
<circle cx="690" cy="300" r="1.1"/>
<circle cx="690" cy="330" r="1.1"/>
<circle cx="690" cy="360" r="1.1"/>
<circle cx="690" cy="390" r="1.1"/>
<circle cx="720" cy="30" r="1.1"/>
<circle cx="720" cy="60" r="1.1"/>
<circle cx="720" cy="90" r="1.1"/>
<circle cx="720" cy="120" r="1.1"/>
<circle cx="720" cy="150" r="1.1"/>
<circle cx="720" cy="180" r="1.1"/>
<circle cx="720" cy="210" r="1.1"/>
<circle cx="720" cy="240" r="1.1"/>
<circle cx="720" cy="270" r="1.1"/>
<circle cx="720" cy="300" r="1.1"/>
<circle cx="720" cy="330" r="1.1"/>
<circle cx="720" cy="360" r="1.1"/>
<circle cx="720" cy="390" r="1.1"/>
<circle cx="750" cy="30" r="1.1"/>
<circle cx="750" cy="60" r="1.1"/>
<circle cx="750" cy="90" r="1.1"/>
<circle cx="750" cy="120" r="1.1"/>
<circle cx="750" cy="150" r="1.1"/>
<circle cx="750" cy="180" r="1.1"/>
<circle cx="750" cy="210" r="1.1"/>
<circle cx="750" cy="240" r="1.1"/>
<circle cx="750" cy="270" r="1.1"/>
<circle cx="750" cy="300" r="1.1"/>
<circle cx="750" cy="330" r="1.1"/>
<circle cx="750" cy="360" r="1.1"/>
<circle cx="750" cy="390" r="1.1"/>
<circle cx="780" cy="30" r="1.1"/>
<circle cx="780" cy="60" r="1.1"/>
<circle cx="780" cy="90" r="1.1"/>
<circle cx="780" cy="120" r="1.1"/>
<circle cx="780" cy="150" r="1.1"/>
<circle cx="780" cy="180" r="1.1"/>
<circle cx="780" cy="210" r="1.1"/>
<circle cx="780" cy="240" r="1.1"/>
<circle cx="780" cy="270" r="1.1"/>
<circle cx="780" cy="300" r="1.1"/>
<circle cx="780" cy="330" r="1.1"/>
<circle cx="780" cy="360" r="1.1"/>
<circle cx="780" cy="390" r="1.1"/>
<circle cx="810" cy="30" r="1.1"/>
<circle cx="810" cy="60" r="1.1"/>
<circle cx="810" cy="90" r="1.1"/>
<circle cx="810" cy="120" r="1.1"/>
<circle cx="810" cy="150" r="1.1"/>
<circle cx="810" cy="180" r="1.1"/>
<circle cx="810" cy="210" r="1.1"/>
<circle cx="810" cy="240" r="1.1"/>
<circle cx="810" cy="270" r="1.1"/>
<circle cx="810" cy="300" r="1.1"/>
<circle cx="810" cy="330" r="1.1"/>
<circle cx="810" cy="360" r="1.1"/>
<circle cx="810" cy="390" r="1.1"/>
<circle cx="840" cy="30" r="1.1"/>
<circle cx="840" cy="60" r="1.1"/>
<circle cx="840" cy="90" r="1.1"/>
<circle cx="840" cy="120" r="1.1"/>
<circle cx="840" cy="150" r="1.1"/>
<circle cx="840" cy="180" r="1.1"/>
<circle cx="840" cy="210" r="1.1"/>
<circle cx="840" cy="240" r="1.1"/>
<circle cx="840" cy="270" r="1.1"/>
<circle cx="840" cy="300" r="1.1"/>
<circle cx="840" cy="330" r="1.1"/>
<circle cx="840" cy="360" r="1.1"/>
<circle cx="840" cy="390" r="1.1"/>
<circle cx="870" cy="30" r="1.1"/>
<circle cx="870" cy="60" r="1.1"/>
<circle cx="870" cy="90" r="1.1"/>
<circle cx="870" cy="120" r="1.1"/>
<circle cx="870" cy="150" r="1.1"/>
<circle cx="870" cy="180" r="1.1"/>
<circle cx="870" cy="210" r="1.1"/>
<circle cx="870" cy="240" r="1.1"/>
<circle cx="870" cy="270" r="1.1"/>
<circle cx="870" cy="300" r="1.1"/>
<circle cx="870" cy="330" r="1.1"/>
<circle cx="870" cy="360" r="1.1"/>
<circle cx="870" cy="390" r="1.1"/>
<circle cx="900" cy="30" r="1.1"/>
<circle cx="900" cy="60" r="1.1"/>
<circle cx="900" cy="90" r="1.1"/>
<circle cx="900" cy="120" r="1.1"/>
<circle cx="900" cy="150" r="1.1"/>
<circle cx="900" cy="180" r="1.1"/>
<circle cx="900" cy="210" r="1.1"/>
<circle cx="900" cy="240" r="1.1"/>
<circle cx="900" cy="270" r="1.1"/>
<circle cx="900" cy="300" r="1.1"/>
<circle cx="900" cy="330" r="1.1"/>
<circle cx="900" cy="360" r="1.1"/>
<circle cx="900" cy="390" r="1.1"/>
<circle cx="930" cy="30" r="1.1"/>
<circle cx="930" cy="60" r="1.1"/>
<circle cx="930" cy="90" r="1.1"/>
<circle cx="930" cy="120" r="1.1"/>
<circle cx="930" cy="150" r="1.1"/>
<circle cx="930" cy="180" r="1.1"/>
<circle cx="930" cy="210" r="1.1"/>
<circle cx="930" cy="240" r="1.1"/>
<circle cx="930" cy="270" r="1.1"/>
<circle cx="930" cy="300" r="1.1"/>
<circle cx="930" cy="330" r="1.1"/>
<circle cx="930" cy="360" r="1.1"/>
<circle cx="930" cy="390" r="1.1"/>
<circle cx="960" cy="30" r="1.1"/>
<circle cx="960" cy="60" r="1.1"/>
<circle cx="960" cy="90" r="1.1"/>
<circle cx="960" cy="120" r="1.1"/>
<circle cx="960" cy="150" r="1.1"/>
<circle cx="960" cy="180" r="1.1"/>
<circle cx="960" cy="210" r="1.1"/>
<circle cx="960" cy="240" r="1.1"/>
<circle cx="960" cy="270" r="1.1"/>
<circle cx="960" cy="300" r="1.1"/>
<circle cx="960" cy="330" r="1.1"/>
<circle cx="960" cy="360" r="1.1"/>
<circle cx="960" cy="390" r="1.1"/>
<circle cx="990" cy="30" r="1.1"/>
<circle cx="990" cy="60" r="1.1"/>
<circle cx="990" cy="90" r="1.1"/>
<circle cx="990" cy="120" r="1.1"/>
<circle cx="990" cy="150" r="1.1"/>
<circle cx="990" cy="180" r="1.1"/>
<circle cx="990" cy="210" r="1.1"/>
<circle cx="990" cy="240" r="1.1"/>
<circle cx="990" cy="270" r="1.1"/>
<circle cx="990" cy="300" r="1.1"/>
<circle cx="990" cy="330" r="1.1"/>
<circle cx="990" cy="360" r="1.1"/>
<circle cx="990" cy="390" r="1.1"/>
<circle cx="1020" cy="30" r="1.1"/>
<circle cx="1020" cy="60" r="1.1"/>
<circle cx="1020" cy="90" r="1.1"/>
<circle cx="1020" cy="120" r="1.1"/>
<circle cx="1020" cy="150" r="1.1"/>
<circle cx="1020" cy="180" r="1.1"/>
<circle cx="1020" cy="210" r="1.1"/>
<circle cx="1020" cy="240" r="1.1"/>
<circle cx="1020" cy="270" r="1.1"/>
<circle cx="1020" cy="300" r="1.1"/>
<circle cx="1020" cy="330" r="1.1"/>
<circle cx="1020" cy="360" r="1.1"/>
<circle cx="1020" cy="390" r="1.1"/>
<circle cx="1050" cy="30" r="1.1"/>
<circle cx="1050" cy="60" r="1.1"/>
<circle cx="1050" cy="90" r="1.1"/>
<circle cx="1050" cy="120" r="1.1"/>
<circle cx="1050" cy="150" r="1.1"/>
<circle cx="1050" cy="180" r="1.1"/>
<circle cx="1050" cy="210" r="1.1"/>
<circle cx="1050" cy="240" r="1.1"/>
<circle cx="1050" cy="270" r="1.1"/>
<circle cx="1050" cy="300" r="1.1"/>
<circle cx="1050" cy="330" r="1.1"/>
<circle cx="1050" cy="360" r="1.1"/>
<circle cx="1050" cy="390" r="1.1"/>
<circle cx="1080" cy="30" r="1.1"/>
<circle cx="1080" cy="60" r="1.1"/>
<circle cx="1080" cy="90" r="1.1"/>
<circle cx="1080" cy="120" r="1.1"/>
<circle cx="1080" cy="150" r="1.1"/>
<circle cx="1080" cy="180" r="1.1"/>
<circle cx="1080" cy="210" r="1.1"/>
<circle cx="1080" cy="240" r="1.1"/>
<circle cx="1080" cy="270" r="1.1"/>
<circle cx="1080" cy="300" r="1.1"/>
<circle cx="1080" cy="330" r="1.1"/>
<circle cx="1080" cy="360" r="1.1"/>
<circle cx="1080" cy="390" r="1.1"/>
<circle cx="1110" cy="30" r="1.1"/>
<circle cx="1110" cy="60" r="1.1"/>
<circle cx="1110" cy="90" r="1.1"/>
<circle cx="1110" cy="120" r="1.1"/>
<circle cx="1110" cy="150" r="1.1"/>
<circle cx="1110" cy="180" r="1.1"/>
<circle cx="1110" cy="210" r="1.1"/>
<circle cx="1110" cy="240" r="1.1"/>
<circle cx="1110" cy="270" r="1.1"/>
<circle cx="1110" cy="300" r="1.1"/>
<circle cx="1110" cy="330" r="1.1"/>
<circle cx="1110" cy="360" r="1.1"/>
<circle cx="1110" cy="390" r="1.1"/>
<circle cx="1140" cy="30" r="1.1"/>
<circle cx="1140" cy="60" r="1.1"/>
<circle cx="1140" cy="90" r="1.1"/>
<circle cx="1140" cy="120" r="1.1"/>
<circle cx="1140" cy="150" r="1.1"/>
<circle cx="1140" cy="180" r="1.1"/>
<circle cx="1140" cy="210" r="1.1"/>
<circle cx="1140" cy="240" r="1.1"/>
<circle cx="1140" cy="270" r="1.1"/>
<circle cx="1140" cy="300" r="1.1"/>
<circle cx="1140" cy="330" r="1.1"/>
<circle cx="1140" cy="360" r="1.1"/>
<circle cx="1140" cy="390" r="1.1"/>
<circle cx="1170" cy="30" r="1.1"/>
<circle cx="1170" cy="60" r="1.1"/>
<circle cx="1170" cy="90" r="1.1"/>
<circle cx="1170" cy="120" r="1.1"/>
<circle cx="1170" cy="150" r="1.1"/>
<circle cx="1170" cy="180" r="1.1"/>
<circle cx="1170" cy="210" r="1.1"/>
<circle cx="1170" cy="240" r="1.1"/>
<circle cx="1170" cy="270" r="1.1"/>
<circle cx="1170" cy="300" r="1.1"/>
<circle cx="1170" cy="330" r="1.1"/>
<circle cx="1170" cy="360" r="1.1"/>
<circle cx="1170" cy="390" r="1.1"/></g></g>
  <ellipse class="halo" cx="600" cy="160" rx="300" ry="190" fill="url(#halo)"/>

  <text x="40" y="52" font-family="ui-monospace, SFMono-Regular, 'JetBrains Mono', Consolas, Menlo, monospace" font-size="15" fill="#ECE7DC" opacity=".55">~/olixid <tspan fill="#F27A21">$</tspan> whoami<tspan class="caret" fill="#F27A21"> ▍</tspan></text>
  <text x="1160" y="52" text-anchor="end" font-family="ui-monospace, SFMono-Regular, 'JetBrains Mono', Consolas, Menlo, monospace" font-size="15" fill="#ECE7DC" opacity=".55">48.83° N · 2.32° E · Paris</text>

  <g transform="translate(600,150) scale(2.7) translate(-138.5,-52)">
    <g class="letters"><g transform="translate(32.0000 75.2812) scale(0.03125 -0.03125)"><path fill="#ECE7DC" d="M792 -20Q591 -20 430.5 69.0Q270 158 176.0 329.0Q82 500 82 744Q82 990 176.0 1161.0Q270 1332 430.5 1421.0Q591 1510 792 1510Q992 1510 1152.5 1421.0Q1313 1332 1406.5 1161.0Q1500 990 1500 744Q1500 499 1406.5 328.0Q1313 157 1152.5 68.5Q992 -20 792 -20ZM792 290Q900 290 978.0 342.0Q1056 394 1098.0 495.5Q1140 597 1140 744Q1140 892 1098.0 994.0Q1056 1096 978.0 1148.0Q900 1200 792 1200Q683 1200 605.0 1147.5Q527 1095 485.0 993.5Q443 892 443 744Q443 597 485.0 496.0Q527 395 605.0 342.5Q683 290 792 290Z"/></g>
<g transform="translate(78.2687 75.2812) scale(0.03125 -0.03125)"><path fill="#ECE7DC" d="M116 0V1490H469V288H1092V0Z"/></g>
<g transform="translate(111.2562 75.2812) scale(0.03125 -0.03125)"><path fill="#ECE7DC" d="M469 1490V0H116V1490Z"/></g>
<g transform="translate(183.3762 75.2812) scale(0.03125 -0.03125)"><path fill="#ECE7DC" d="M469 1490V0H116V1490Z"/></g>
<g transform="translate(198.4575 75.2812) scale(0.03125 -0.03125)"><path fill="#ECE7DC" d="M664 0H268V302H649Q777 302 865.5 345.0Q954 388 999.0 486.0Q1044 584 1044 745Q1044 906 998.0 1003.5Q952 1101 863.5 1144.5Q775 1188 644 1188H261V1490H664Q891 1490 1055.0 1400.5Q1219 1311 1308.0 1144.0Q1397 977 1397 745Q1397 513 1308.5 345.5Q1220 178 1055.5 89.0Q891 0 664 0ZM469 1490V0H116V1490Z"/></g></g>
    <g transform="translate(156,52) scale(0.2) rotate(45)">
<g transform="rotate(0)"><g class="blade" style="animation-delay:0.00s"><use href="#xb"/></g></g>
<g transform="rotate(90)"><g class="blade" style="animation-delay:0.15s"><use href="#xb"/></g></g>
<g transform="rotate(180)"><g class="blade" style="animation-delay:0.30s"><use href="#xb"/></g></g>
<g transform="rotate(270)"><g class="blade" style="animation-delay:0.45s"><use href="#xb"/></g></g>
<g class="core">
  <polygon points="-24,-24 24,-24 24,24 -24,24" fill="url(#xd)"/>
  <polygon points="-12,-12 12,-12 12,12 -12,12" fill="url(#xl)"/>
</g>
</g>
  </g>

  <line class="rule" x1="250" y1="268" x2="950" y2="268" stroke="url(#rule)" stroke-width="2"/>
  <text class="tag" x="600" y="312" text-anchor="middle" font-family="Inter, -apple-system, 'Segoe UI', Helvetica, Arial, sans-serif" font-size="30" font-weight="600" fill="#ECE7DC">On trouve où l’IA fait gagner du temps.</text>
  <text class="tag" x="600" y="350" text-anchor="middle" font-family="Inter, -apple-system, 'Segoe UI', Helvetica, Arial, sans-serif" font-size="30" font-weight="600" fill="#FFAD73">Puis on la construit, et on la met en production.</text>
</g>
</svg>
